# xmcd
#
# Track frame offsets: 
#        150
#        6157
#        25733
#        49448
#        69831
#        91360
#        115336
#        136037
#        155866
#        176148
#        199216
#        222521
#
# Disc length: 3335 seconds
#
# Revision: 1
# Processed by: cddbd v1.5.1PL0 Copyright (c) Steve Scherf et al.
# Submitted via: ExactAudioCopy v0.95a5
#
DISCID=ac0d050c
DTITLE=Domino - The World of Dominology
DYEAR=1997
DGENRE=Rap
TTITLE0=Dominology
TTITLE1=Shake It Up
TTITLE2=On Them Thangz
TTITLE3=Do You Like It
TTITLE4=Keep Goin'
TTITLE5=Get Yo Money
TTITLE6=Come On Over
TTITLE7=Sowed Up Like Clothes
TTITLE8=Daddy Mack
TTITLE9=Booty Call
TTITLE10=Just Clownin'
TTITLE11=Everybody Wanna Be A G
EXTD=
EXTT0=
EXTT1=
EXTT2=
EXTT3=
EXTT4=
EXTT5=
EXTT6=
EXTT7=
EXTT8=
EXTT9=
EXTT10=
EXTT11=
PLAYORDER=
